<svg xmlns="http://www.w3.org/2000/svg" width="160" height="35" viewBox="0 0 160 35" fill="none">
  <path
    d="M9.83862 7.58167H12.1731V23.5405H19.4868V25.4545H9.83862V7.58167ZM22.3805 7.58167H24.715V25.4545H22.3805V7.58167ZM34.6244 7.58167C35.4108 7.58167 36.1517 7.67281 36.8471 7.85511C37.5507 8.0374 38.1716 8.32741 38.7097 8.72513C39.256 9.13115 39.6824 9.64488 39.9886 10.2663C40.3032 10.8878 40.4604 11.6211 40.4604 12.4663C40.4604 13.3114 40.3032 14.0448 39.9886 14.6662C39.6824 15.2877 39.256 15.8013 38.7097 16.2073C38.2875 16.5222 37.8156 16.7667 37.2941 16.9407C36.7809 17.1147 36.2303 17.2348 35.6426 17.3011L35.6301 17.3259C35.8702 17.4834 36.1351 17.7071 36.4248 17.9972C36.7146 18.2789 37.0167 18.6145 37.3313 19.0039C37.6459 19.3934 37.9688 19.8159 38.2999 20.2717C38.631 20.7191 38.9663 21.1914 39.3057 21.6885L41.8885 25.4545H39.1567L36.3503 21.1044C35.8454 20.3089 35.4067 19.6668 35.0341 19.1779C34.6699 18.689 34.3223 18.3037 33.9911 18.022C33.6683 17.7403 33.3372 17.5497 32.9978 17.4503C32.6584 17.3509 32.2652 17.3011 31.8181 17.3011H31.3463V25.4545H29.0367V7.58167H34.6244ZM34.6244 15.4865C35.1459 15.4865 35.6219 15.4285 36.0524 15.3125C36.4828 15.1965 36.8512 15.0184 37.1574 14.7781C37.472 14.5294 37.7163 14.2146 37.8902 13.8335C38.0639 13.4523 38.1508 12.9966 38.1508 12.4663C38.1508 11.9359 38.0639 11.4802 37.8902 11.099C37.7163 10.7179 37.472 10.4072 37.1574 10.1669C36.8512 9.91832 36.4828 9.73603 36.0524 9.62002C35.6219 9.50402 35.1459 9.44602 34.6244 9.44602H31.3463V15.4865H34.6244ZM57.635 22.8569C57.9744 22.9895 58.3303 23.1138 58.7029 23.2297C59.0837 23.3457 59.4686 23.4452 59.8576 23.5281C60.255 23.6109 60.6523 23.6772 61.0497 23.7269C61.447 23.7767 61.8361 23.8015 62.2169 23.8015C62.8709 23.8015 63.4628 23.7269 63.9926 23.5778C64.5224 23.4286 64.9777 23.2132 65.3585 22.9315C65.7393 22.6415 66.0331 22.2893 66.2402 21.875C66.4471 21.4524 66.5505 20.9718 66.5505 20.4332C66.5505 19.8946 66.4512 19.4555 66.2525 19.1157C66.0621 18.7677 65.7807 18.4778 65.4082 18.2457C65.044 18.0138 64.5928 17.819 64.0547 17.6615C63.5165 17.4959 62.904 17.3259 62.2169 17.152C61.4553 16.9531 60.7517 16.7335 60.106 16.4933C59.4685 16.2447 58.914 15.9256 58.4421 15.5362C57.9785 15.1467 57.6142 14.6662 57.3493 14.0945C57.0844 13.5144 56.952 12.7936 56.952 11.9318C56.952 11.2275 57.0927 10.5895 57.3742 10.0177C57.6557 9.44602 58.053 8.96129 58.5663 8.56356C59.0795 8.15755 59.6963 7.84682 60.4165 7.63138C61.1367 7.41595 61.9314 7.30823 62.8006 7.30823C63.2227 7.30823 63.6532 7.33723 64.0919 7.39524C64.5307 7.44495 64.9652 7.51538 65.3958 7.60653C65.8262 7.69767 66.2484 7.80953 66.6623 7.94211C67.0762 8.07468 67.4653 8.21969 67.8296 8.37713L67.0844 10.2166C66.7865 10.1006 66.4802 9.9846 66.1656 9.86861C65.8593 9.7526 65.5323 9.64903 65.1847 9.55788C64.8369 9.46673 64.4645 9.39631 64.0671 9.34659C63.678 9.28858 63.2559 9.25958 62.8006 9.25958C62.3453 9.25958 61.9106 9.30929 61.4967 9.40873C61.0829 9.50816 60.7144 9.66559 60.3916 9.88104C60.0771 10.0882 59.8246 10.3616 59.6342 10.7013C59.4438 11.0411 59.3486 11.4513 59.3486 11.9318C59.3486 12.4704 59.4438 12.9137 59.6342 13.2617C59.8328 13.6014 60.1143 13.8874 60.4786 14.1193C60.851 14.3513 61.3063 14.5502 61.8444 14.7159C62.3825 14.8733 62.9951 15.0391 63.6822 15.2131C64.4437 15.4119 65.1433 15.6357 65.7807 15.8843C66.4263 16.1245 66.981 16.4394 67.4446 16.8288C67.9164 17.2183 68.2848 17.703 68.5497 18.283C68.8146 18.8631 68.947 19.5797 68.947 20.4332C68.947 21.3364 68.7774 22.1236 68.438 22.7948C68.1069 23.4576 67.6391 24.0086 67.0349 24.4478C66.4388 24.8869 65.7269 25.2142 64.899 25.4297C64.0795 25.6451 63.1854 25.7528 62.2169 25.7528C60.3874 25.7528 58.6118 25.4007 56.8899 24.6964L57.635 22.8569ZM72.0643 7.58167H81.9732V9.49573H74.3987V14.4301H79.7629V16.3441H74.3987V23.5405H82.2588V25.4545H72.0643V7.58167ZM91.2369 7.58167C92.0234 7.58167 92.7642 7.67281 93.4597 7.85511C94.1633 8.0374 94.7842 8.32741 95.3222 8.72513C95.8686 9.13115 96.2949 9.64488 96.6012 10.2663C96.9158 10.8878 97.0731 11.6211 97.0731 12.4663C97.0731 13.3114 96.9158 14.0448 96.6012 14.6662C96.2949 15.2877 95.8686 15.8013 95.3222 16.2073C94.9001 16.5222 94.4282 16.7667 93.9067 16.9407C93.3934 17.1147 92.843 17.2348 92.2552 17.3011L92.2428 17.3259C92.4828 17.4834 92.7477 17.7071 93.0375 17.9972C93.3272 18.2789 93.6294 18.6145 93.9439 19.0039C94.2585 19.3934 94.5813 19.8159 94.9125 20.2717C95.2436 20.7191 95.5789 21.1914 95.9183 21.6885L98.501 25.4545H95.7693L92.9629 21.1044C92.458 20.3089 92.0192 19.6668 91.6468 19.1779C91.2825 18.689 90.9348 18.3037 90.6037 18.022C90.2809 17.7403 89.9497 17.5497 89.6103 17.4503C89.2709 17.3509 88.8777 17.3011 88.4307 17.3011H87.9588V25.4545H85.6492V7.58167H91.2369ZM91.2369 15.4865C91.7585 15.4865 92.2344 15.4285 92.665 15.3125C93.0954 15.1965 93.4638 15.0184 93.7701 14.7781C94.0846 14.5294 94.3288 14.2146 94.5027 13.8335C94.6765 13.4523 94.7635 12.9966 94.7635 12.4663C94.7635 11.9359 94.6765 11.4802 94.5027 11.099C94.3288 10.7179 94.0846 10.4072 93.7701 10.1669C93.4638 9.91832 93.0954 9.73603 92.665 9.62002C92.2344 9.50402 91.7585 9.44602 91.2369 9.44602H87.9588V15.4865H91.2369ZM113.067 7.58167H115.513L108.846 25.4794H106.771L100.091 7.58167H102.537L107.815 22.6083L113.067 7.58167ZM118.94 7.58167H121.275V25.4545H118.94V7.58167ZM137.667 24.9449C136.896 25.1853 136.082 25.38 135.22 25.5291C134.367 25.6782 133.428 25.7528 132.402 25.7528C129.868 25.7528 127.957 24.9947 126.665 23.4783C125.373 21.962 124.728 19.729 124.728 16.7791C124.728 13.647 125.373 11.2855 126.665 9.69459C127.957 8.10368 129.868 7.30823 132.402 7.30823C133.362 7.30823 134.223 7.39109 134.984 7.55681C135.754 7.72253 136.495 7.93797 137.207 8.20312L136.562 10.0426C136.222 9.91832 135.887 9.80645 135.555 9.70702C135.224 9.60759 134.89 9.52473 134.549 9.45845C134.219 9.39216 133.876 9.34244 133.52 9.30929C133.164 9.27615 132.791 9.25958 132.402 9.25958C131.483 9.25958 130.693 9.4253 130.03 9.75674C129.368 10.0799 128.821 10.5563 128.391 11.1861C127.96 11.8075 127.642 12.5699 127.434 13.473C127.228 14.3679 127.124 15.3871 127.124 16.5305C127.124 17.7071 127.228 18.7471 127.434 19.6502C127.642 20.5534 127.96 21.3157 128.391 21.9371C128.821 22.5503 129.368 23.0143 130.03 23.3292C130.693 23.6441 131.483 23.8015 132.402 23.8015C133.246 23.8015 134.049 23.7311 134.81 23.5902C135.572 23.4494 136.33 23.2629 137.083 23.0308L137.667 24.9449ZM140.448 7.58167H150.358V9.49573H142.783V14.4301H148.147V16.3441H142.783V23.5405H150.643V25.4545H140.448V7.58167Z"
    fill="white" />
  <path d="M1.05957 28.6364H121.854" stroke="white" stroke-linecap="round" />
  <path d="M29.6689 4.24243H158.94" stroke="white" stroke-linecap="round" />
</svg>