<svg xmlns="http://www.w3.org/2000/svg" width="233" height="51" viewBox="0 0 233 51" fill="none" id="logo">
  <path
    d="M14.3275 11.0476H17.727V34.3019H28.3776V37.0909H14.3275V11.0476ZM32.5916 11.0476H35.9911V37.0909H32.5916V11.0476ZM50.4217 11.0476C51.5669 11.0476 52.6458 11.1804 53.6585 11.4461C54.6831 11.7117 55.5873 12.1343 56.3709 12.7138C57.1665 13.3054 57.7874 14.054 58.2334 14.9596C58.6915 15.865 58.9205 16.9336 58.9205 18.1651C58.9205 19.3967 58.6915 20.4652 58.2334 21.3707C57.7874 22.2764 57.1665 23.0248 56.3709 23.6164C55.7561 24.0753 55.0689 24.4315 54.3095 24.6851C53.5621 24.9386 52.7603 25.1137 51.9045 25.2103L51.8863 25.2464C52.236 25.4759 52.6218 25.8019 53.0436 26.2245C53.4657 26.635 53.9056 27.124 54.3637 27.6915C54.8218 28.259 55.292 28.8747 55.7742 29.5388C56.2564 30.1908 56.7446 30.879 57.2389 31.6033L61 37.0909H57.0219L52.9352 30.7521C52.1999 29.593 51.5609 28.6574 51.0184 27.9449C50.488 27.2326 49.9818 26.6712 49.4996 26.2607C49.0294 25.8502 48.5472 25.5725 48.053 25.4275C47.5587 25.2827 46.9861 25.2103 46.3351 25.2103H45.648V37.0909H42.2846V11.0476H50.4217ZM50.4217 22.5661C51.1812 22.5661 51.8743 22.4816 52.5012 22.3125C53.128 22.1435 53.6645 21.884 54.1105 21.5338C54.5686 21.1715 54.9243 20.7127 55.1775 20.1574C55.4306 19.602 55.5571 18.9379 55.5571 18.1651C55.5571 17.3924 55.4306 16.7283 55.1775 16.1729C54.9243 15.6176 54.5686 15.1648 54.1105 14.8147C53.6645 14.4524 53.128 14.1868 52.5012 14.0178C51.8743 13.8488 51.1812 13.7642 50.4217 13.7642H45.648V22.5661H50.4217ZM83.9309 33.3058C84.4252 33.499 84.9435 33.6801 85.486 33.849C86.0406 34.0181 86.601 34.1631 87.1676 34.2838C87.7463 34.4045 88.3249 34.5011 88.9036 34.5735C89.4822 34.646 90.0488 34.6822 90.6034 34.6822C91.5558 34.6822 92.4177 34.5735 93.1892 34.3563C93.9607 34.1388 94.6238 33.8249 95.1782 33.4145C95.7328 32.9919 96.1607 32.4787 96.4622 31.875C96.7635 31.2593 96.9141 30.5589 96.9141 29.7741C96.9141 28.9894 96.7695 28.3495 96.4802 27.8544C96.2029 27.3473 95.7931 26.9248 95.2506 26.5866C94.7202 26.2486 94.0632 25.9649 93.2796 25.7354C92.4959 25.494 91.6039 25.2464 90.6034 24.993C89.4942 24.7032 88.4697 24.3831 87.5293 24.0331C86.601 23.6708 85.7934 23.206 85.1063 22.6385C84.4312 22.071 83.9007 21.3707 83.5149 20.5377C83.1292 19.6925 82.9363 18.6421 82.9363 17.3864C82.9363 16.3601 83.1412 15.4304 83.5512 14.5973C83.961 13.7642 84.5397 13.0579 85.2871 12.4784C86.0344 11.8868 86.9326 11.434 87.9814 11.1201C89.0303 10.8061 90.1875 10.6492 91.4533 10.6492C92.068 10.6492 92.695 10.6914 93.3338 10.776C93.9728 10.8484 94.6056 10.951 95.2325 11.0838C95.8593 11.2166 96.4742 11.3796 97.0769 11.5728C97.6796 11.766 98.2462 11.9773 98.7767 12.2067L97.6917 14.8871C97.2578 14.7181 96.8117 14.549 96.3535 14.38C95.9076 14.211 95.4314 14.06 94.9251 13.9272C94.4187 13.7944 93.8763 13.6918 93.2977 13.6193C92.7311 13.5348 92.1163 13.4926 91.4533 13.4926C90.7902 13.4926 90.1573 13.565 89.5546 13.7099C88.9519 13.8548 88.4153 14.0842 87.9452 14.3981C87.4872 14.7 87.1195 15.0984 86.8422 15.5934C86.5649 16.0885 86.4264 16.6861 86.4264 17.3864C86.4264 18.1712 86.5649 18.8172 86.8422 19.3242C87.1315 19.8192 87.5414 20.2359 88.0719 20.5739C88.6142 20.9119 89.2773 21.2018 90.0609 21.4432C90.8444 21.6726 91.7366 21.9141 92.7371 22.1677C93.8461 22.4573 94.8648 22.7834 95.7931 23.1457C96.7333 23.4957 97.5411 23.9546 98.2162 24.5221C98.9033 25.0896 99.4396 25.7958 99.8254 26.641C100.211 27.4862 100.404 28.5305 100.404 29.7741C100.404 31.0902 100.157 32.2373 99.6628 33.2153C99.1806 34.1812 98.4995 34.984 97.6195 35.624C96.7515 36.2638 95.7147 36.7407 94.5091 37.0548C93.3158 37.3687 92.0137 37.5255 90.6034 37.5255C87.9392 37.5255 85.3533 37.0124 82.8459 35.9862L83.9309 33.3058ZM104.944 11.0476H119.373V13.8367H108.343V21.0267H116.155V23.8158H108.343V34.3019H119.789V37.0909H104.944V11.0476ZM132.864 11.0476C134.009 11.0476 135.088 11.1804 136.101 11.4461C137.125 11.7117 138.029 12.1343 138.813 12.7138C139.609 13.3054 140.229 14.054 140.675 14.9596C141.134 15.865 141.363 16.9336 141.363 18.1651C141.363 19.3967 141.134 20.4652 140.675 21.3707C140.229 22.2764 139.609 23.0248 138.813 23.6164C138.198 24.0753 137.511 24.4315 136.752 24.6851C136.004 24.9386 135.203 25.1137 134.347 25.2103L134.329 25.2464C134.678 25.4759 135.064 25.8019 135.486 26.2245C135.908 26.635 136.348 27.124 136.806 27.6915C137.264 28.259 137.734 28.8747 138.216 29.5388C138.698 30.1908 139.187 30.879 139.681 31.6033L143.442 37.0909H139.464L135.377 30.7521C134.642 29.593 134.003 28.6574 133.461 27.9449C132.93 27.2326 132.424 26.6712 131.942 26.2607C131.471 25.8502 130.989 25.5725 130.495 25.4275C130.001 25.2827 129.428 25.2103 128.777 25.2103H128.09V37.0909H124.727V11.0476H132.864ZM132.864 22.5661C133.623 22.5661 134.316 22.4816 134.943 22.3125C135.57 22.1435 136.107 21.884 136.553 21.5338C137.011 21.1715 137.366 20.7127 137.62 20.1574C137.873 19.602 137.999 18.9379 137.999 18.1651C137.999 17.3924 137.873 16.7283 137.62 16.1729C137.366 15.6176 137.011 15.1648 136.553 14.8147C136.107 14.4524 135.57 14.1868 134.943 14.0178C134.316 13.8488 133.623 13.7642 132.864 13.7642H128.09V22.5661H132.864ZM164.654 11.0476H168.215L158.506 37.1271H155.485L145.757 11.0476H149.32L157.005 32.9436L164.654 11.0476ZM173.207 11.0476H176.606V37.0909H173.207V11.0476ZM200.477 36.3483C199.355 36.6985 198.169 36.9823 196.914 37.1996C195.672 37.4169 194.305 37.5255 192.81 37.5255C189.12 37.5255 186.337 36.4208 184.456 34.2113C182.575 32.0018 181.635 28.748 181.635 24.4496C181.635 19.8857 182.575 16.4446 184.456 14.1264C186.337 11.8083 189.12 10.6492 192.81 10.6492C194.208 10.6492 195.462 10.7699 196.57 11.0114C197.692 11.2529 198.771 11.5668 199.808 11.9532L198.868 14.6336C198.373 14.4524 197.885 14.2894 197.402 14.1446C196.921 13.9997 196.433 13.8789 195.938 13.7823C195.456 13.6858 194.956 13.6133 194.438 13.565C193.919 13.5167 193.376 13.4926 192.81 13.4926C191.472 13.4926 190.321 13.7341 189.357 14.217C188.392 14.6879 187.596 15.3821 186.969 16.2998C186.341 17.2053 185.878 18.3161 185.576 19.6321C185.275 20.9361 185.124 22.4212 185.124 24.0873C185.124 25.8019 185.275 27.3172 185.576 28.6331C185.878 29.9492 186.341 31.0601 186.969 31.9656C187.596 32.859 188.392 33.5352 189.357 33.994C190.321 34.4528 191.472 34.6822 192.81 34.6822C194.04 34.6822 195.209 34.5796 196.317 34.3743C197.427 34.1691 198.53 33.8974 199.627 33.5593L200.477 36.3483ZM204.528 11.0476H218.958V13.8367H207.927V21.0267H215.74V23.8158H207.927V34.3019H219.373V37.0909H204.528V11.0476Z"
    fill="#030303" />
  <path d="M1.54303 41.7273H177.45" stroke="#0ABAB5" stroke-width="1.5" stroke-linecap="round" />
  <path d="M43.2053 6.18176H231.457" stroke="#0ABAB5" stroke-width="1.5" stroke-linecap="round" />
</svg>