<svg xmlns="http://www.w3.org/2000/svg" width="33" height="26" viewBox="0 0 33 26" fill="none">
  <path
    d="M2.44 4.82074C2.44 3.95879 2.77714 3.13214 3.37726 2.52264C3.97738 1.91315 4.79131 1.57074 5.64 1.57074H28.04C28.8887 1.57074 29.7026 1.91315 30.3027 2.52264C30.9029 3.13214 31.24 3.95879 31.24 4.82074V21.0707C31.24 21.9327 30.9029 22.7593 30.3027 23.3688C29.7026 23.9783 28.8887 24.3207 28.04 24.3207H5.64C4.79131 24.3207 3.97738 23.9783 3.37726 23.3688C2.77714 22.7593 2.44 21.9327 2.44 21.0707V4.82074Z"
    stroke="#0ABAB5" stroke-width="3" stroke-linecap="round" stroke-linejoin="round" />
  <path d="M2.44 7.52911L16.6287 15.3291L30.8175 7.52911" stroke="#0ABAB5" stroke-width="3"
    stroke-linecap="round" stroke-linejoin="round" />
</svg>