<svg xmlns="http://www.w3.org/2000/svg" width="32" height="29" viewBox="0 0 32 29" fill="none">
  <path
    d="M30.9319 0.683034C30.5176 0.341487 30.0178 0.117657 29.4856 0.0353225C28.9534 -0.0470123 28.4086 0.0152222 27.9092 0.215415L1.84071 10.6575C1.28338 10.8851 0.80896 11.2754 0.480406 11.7768C0.151852 12.2781 -0.0153087 12.8667 0.00110233 13.4644C0.0175134 14.0622 0.21672 14.6409 0.572293 15.1237C0.927866 15.6066 1.423 15.9707 1.99199 16.1679L7.26503 17.9878L10.2034 27.6318C10.2437 27.7604 10.302 27.8829 10.3765 27.9955C10.3881 28.0128 10.4041 28.0243 10.4158 28.0431C10.5017 28.1613 10.6052 28.266 10.7227 28.3534L10.8245 28.4256C10.9625 28.516 11.115 28.5823 11.2755 28.6219L11.2944 28.6233L11.3031 28.6276C11.4003 28.6472 11.4992 28.6569 11.5984 28.6565L11.6246 28.6522C11.7735 28.6495 11.9212 28.6242 12.0624 28.5771C12.0944 28.5637 12.1254 28.5492 12.1555 28.5338C12.2611 28.4908 12.3612 28.4356 12.4537 28.3693L12.6748 28.1831L16.6052 23.8778L22.4674 28.3837C22.9832 28.7828 23.6185 28.9997 24.2726 29C24.9581 28.9992 25.6224 28.7646 26.1542 28.3355C26.6861 27.9063 27.053 27.3088 27.1935 26.6431L31.94 3.52628C32.0473 3.0062 32.0102 2.46696 31.8327 1.96618C31.6551 1.46539 31.3438 1.02188 30.9319 0.683034ZM12.1744 18.4468C11.9734 18.6466 11.8358 18.9005 11.7788 19.1771L11.3278 21.3478L10.1874 17.6054L16.1005 14.55L12.1744 18.4468ZM24.2508 26.1019L17.3224 20.7762C17.0326 20.554 16.669 20.4483 16.3041 20.4804C15.9393 20.5125 15.6001 20.68 15.3542 20.9494L14.0945 22.3278L14.5396 20.1816L24.8428 9.95893C25.0873 9.7149 25.2358 9.39224 25.2617 9.04912C25.2875 8.70601 25.189 8.36502 24.9838 8.08763C24.7787 7.81023 24.4804 7.61469 24.1427 7.53625C23.8051 7.4578 23.4503 7.50162 23.1423 7.6598L8.35601 15.2976L2.93751 13.3304L29.0903 2.95186L24.2508 26.1019Z"
    fill="#0ABAB5" />
</svg>